<svg xmlns="http://www.w3.org/2000/svg" xmlns:xlink="http://www.w3.org/1999/xlink" preserveAspectRatio="none" width="100" height="100" viewBox="0 0 100 100"><defs><path fill="#333" d="M47.5.5h-7l3.5 4 3.5-4z" id="a"/><path fill="#0C0" d="M21.5 1.5Q20 3 20 5.1q0 2.15 1.5 3.55 1.45 1.5 3.6 1.5 2.15 0 3.55-1.5 1.5-1.4 1.5-3.55 0-2.1-1.5-3.6Q27.25 0 25.1 0t-3.6 1.5z" id="b"/><path fill="#FFF" d="M10 5H2v2h8V5z" id="c"/><path fill="#FFF" d="M5 2v8h2V2H5z" id="d"/><path fill="#FFF" d="M107.45 48.4q-.35-2.4-1.85-3.9l11.6-6.45q1.95-1.05 2.2-2.9.25-1.8-1.25-3.35L88.25 1.95Q86.75.4 84.3.1q-2.45-.35-4.3.7L49.65 17.45q-1.2.7-1.75 1.65l8.95-16.3q1.05-1.9.4-2.45-.6-.65-2.5.4l-30.3 16.7q-1.9 1.1-3.95 3.15-2.1 2.1-3.1 3.95L.65 54.9Q-.4 56.75.2 57.4q.6.55 2.5-.5l23.45-12.8-12.9 23.4q-1.05 1.9-.65 4.3.35 2.4 1.85 3.95l-11.7 6.4Q.85 83.2.6 85.05q-.25 1.75 1.25 3.3l29.9 29.9q1.55 1.55 3.95 1.85 2.45.35 4.35-.7l30.3-16.7q1.85-1.05 2.1-2.85.3-1.85-1.2-3.35l-10.4-10.45 6.4-11.65q1-1.85.7-4.3-.3-2.15-1.55-3.6L82.9 83q-2.05 2.1-3.1 4l-16.65 30.35q-1.05 1.9-.45 2.5.65.65 2.5-.45l30.3-16.7q1.9-1.05 4-3.1 2.05-2.1 3.1-4l16.75-30.3q1-1.9.4-2.5-.6-.6-2.5.45L93.9 76.05l12.85-23.35q1.05-1.9.7-4.3m-59.7-29.05q-.207.444-.25 1-.25 1.8 1.25 3.35L59.2 34.15 52.75 45.8q-1 1.85-.65 4.3.3 2.1 1.5 3.6L37.1 37.15q2.05-2.1 3.05-3.95l7.6-13.85z" id="e"/><g id="f"><path fill="#FF3E3C" d="M14.45 75.65L2.8 82.05q-1.95 1.1-2.2 2.9-.25 1.75 1.25 3.35l29.95 29.8q1.5 1.5 3.95 1.85 2.4.35 4.35-.7l30.25-16.65q.95-.5 1.5-1.2.3-.45.5-.95.15-.4.2-.75.25-1.8-1.25-3.3L60.8 85.9l-10.25 18.65q-1.05 1.9-2.95 2.15-1.7.3-3.3-1.25l-29.85-29.8z"/><path fill="#98D843" d="M29.95 37.1l-3.85 7.05L13.25 67.4q-1.05 1.95-.65 4.3.3 2.4 1.8 3.9l.05.05 29.85 29.8q1.6 1.55 3.3 1.25 1.9-.25 2.95-2.15L60.8 85.9l6.4-11.55q1.1-1.9.7-4.35-.25-1.95-1.25-3.3-.3-.35-.6-.65l-12.7-12.7-16.2-16.2-.95-.95q-1.6-1.5-3.35-1.25-1.8.25-2.9 2.15z"/><path fill="#9823C6" d="M57.3.35q-.55-.55-2.5.45L24.45 17.45q-1.9 1.2-3.95 3.15-2.05 2.2-3.1 4L.65 54.85Q-.4 56.7.2 57.3q.6.6 2.5-.4l23.4-12.75 3.85-7.05q1.1-1.9 2.9-2.15 1.75-.25 3.35 1.25l.95.95q2.05-2.2 3.05-4l7.45-13.5.45-.9L56.9 2.8q1-1.85.4-2.45z"/><path fill="#FE0FA6" d="M119.35 65.2q1-1.85.45-2.45-.6-.55-2.5.4L93.9 76l-6.95 3.75q-1.9 1.1-4.05 3.15v.05q-2 2-3.15 3.95l-7.4 13.55q-.2.5-.5.95l-8.7 15.8q-1 1.9-.45 2.5.6.6 2.45-.4l30.4-16.75q1.75-.95 3.95-3.1 2.05-2.05 3.1-3.95l16.75-30.3z"/><path fill="#FFC34E" d="M107.45 48.35q-.35-2.35-1.85-3.9l-18.65 10.3q-1.95 1-4.35.7-2.4-.35-3.95-1.85L59.2 34.1l-6.45 11.7q-1.05 1.95-.65 4.25.25 1.9 1.25 3.3l12.7 12.7q.3.3.6.65L82.9 82.95v-.05q2.15-2.05 4.05-3.15L93.9 76l12.8-23.3q1.1-1.95.75-4.35z"/><path fill="#26C4FF" d="M105.6 44.45L117.2 38q1.9-1 2.15-2.85.35-1.8-1.25-3.35L88.2 2.05Q86.8.5 84.35.15 81.9-.2 80 .85l-30.4 16.6q-.95.55-1.5 1.3l-.45.9q-.15.3-.2.75-.2 1.85 1.35 3.3l10.4 10.4 19.45 19.5q1.55 1.5 3.95 1.85 2.4.3 4.35-.7l18.65-10.3z"/></g></defs><use xlink:href="#a"/><use xlink:href="#b"/><use xlink:href="#c" transform="translate(20) scale(.84616)"/><use xlink:href="#d" transform="translate(20) scale(.84616)"/><use xlink:href="#e" transform="scale(.09996 .0998)"/><use xlink:href="#f" transform="scale(.09996 .0998)"/><path d="M67 2v3h-2l3 4 3-4h-2V2zm-7 5c0-1.348.896-2.492 2.128-2.869a3.001 3.001 0 0 1 3.382-2.088A4 4 0 0 1 73 4c1.668.005 3 1.346 3 3 0 1.653-1.347 3-3.01 3h-9.98A2.998 2.998 0 0 1 60 7zm0 0" fill="gray" fill-rule="evenodd"/></svg>