<svg xmlns="http://www.w3.org/2000/svg" xmlns:xlink="http://www.w3.org/1999/xlink" preserveAspectRatio="none" width="12" height="14" viewBox="0 0 12 14"><defs><path fill="#FFF" d="M786.15 337.25q-.65 0-1.25.25t-1 .7q-.45.45-.7 1-.25.6-.25 1.25v.45h1.25v-.45q0-.8.6-1.35.55-.55 1.35-.55t1.35.55q.55.55.55 1.35v1.75q-.2-.1-.45-.2-.7-.3-1.45-.3-.8 0-1.5.3-.65.25-1.2.8-.5.5-.8 1.2-.3.7-.3 1.45 0 .8.3 1.5.3.65.8 1.2.55.5 1.2.8.7.3 1.5.3.75 0 1.45-.3t1.2-.8q.5-.55.8-1.2.3-.7.3-1.5 0-.75-.3-1.45-.1-.3-.25-.55v-3q0-.65-.25-1.25-.25-.55-.7-1-.45-.45-1-.7-.6-.25-1.25-.25m-2.5 8.2q0-1 .7-1.75.75-.75 1.8-.75 1 0 1.75.75t.75 1.75q0 1.05-.75 1.8-.75.7-1.75.7-1.05 0-1.8-.7-.7-.75-.7-1.8m3.55 0q0-.4-.3-.75-.3-.3-.75-.3t-.75.3q-.3.35-.3.75 0 .45.3.75.3.35.75.35t.75-.35q.3-.3.3-.75z" id="a"/></defs><use xlink:href="#a" transform="translate(-780.15 -336.25)"/></svg>