<svg xmlns="http://www.w3.org/2000/svg" xmlns:xlink="http://www.w3.org/1999/xlink" preserveAspectRatio="none" width="14.3" height="14.3" viewBox="0 0 14.3 14.300001"><defs><path d="M312.55 210h-1.1v10.55l-3.4-3.45-.45-.15-.5.55.15.45 4.35 4.35.4.1.4-.1 4.4-4.35.1-.45-.55-.55-.4.15-3.4 3.45V210M324 230.6v-8.75l-.3-.4v-.1l-5.1-2.35-.3-.1-.55.55.4.5h-.05l4.1 1.95-10.2 4.8-10.15-4.8 4.1-1.95.25-.5-.55-.55-.2.1-5.15 2.35v.1l-.3.4v8.75l.3.5v.05l11.45 5.45v-.05l.25.05.25-.05v.05l11.45-5.45v-.05l.3-.5m-22.9-.35v-7.5l10.35 4.95v7.5l-10.35-4.95m21.8-7.5v7.5l-10.35 4.95v-7.5l10.35-4.95z" fill="#fff" id="a"/><path d="M17.5 278v-3.8H.65v9.8h5.5q-.1.25-.15.7l-.05.4v.05q-.1.3-.1.8v.2q-.1.25-.05.6-.15.35.4.9.25.25.7.25h7.15q.35 0 .7-.15h-.05q.25-.1.35-.35v.05q.1-.25.15-.5h3.7q.35 0 .7-.15h-.05q.25-.1.35-.35v.05q.15-.35.15-.7 0-.3-.05-.8 0-.2-.05-.25v-.3q-.05-.15-.05-.2v-.2l-.15-.9q-.15-.9-.5-1.2-.3-.45-.8-.7h-.05q-.15-.1-.2-.1.05-.15.05-.3.05-.3.05-.75 0-.5-.05-.75-.2-.8-.7-1.25l-.05-.1m-2.15.3h.15q.65-.05 1.05.35.4.35.55.95.05.2.05.5 0 .25-.05.5-.25.8-.9 1.2-.25.15-.65.2l-.15.05q-.35-.05-.45-.1-.75-.3-1-1.15 0-.1-.05-.3-.05-.35.05-.65 0-.25.15-.6.3-.65.95-.85.1-.05.3-.1m-3.25-1.1q0 .35-.25.5-.15.2-.45.2-.55-.25-1.15-.25h-.15l-.2.05q-.25 0-.45.1-.1 0-.2.1H7.2q-.7 0-.7-.7v-.7q0-.65.7-.65h4.15q.75 0 .75.65v.7m-1.85 1.55q.65 0 1.15.45.45.4.65 1 .1.3.1.7 0 .4-.15.65-.3.9-1.1 1.15l-.3.05q-.2.05-.5-.05-.25-.05-.4-.15-.75-.4-1-1.3-.1-.45-.05-.8.05-.3.05-.35.25-.9 1-1.2.15-.1.35-.1l.2-.05m1.85 4h.1q.05.05.1.05.15 0 .3.1.1.05.25.1.45.2.55.4.2.2.3.55.05.25.1.75.05.15.1.5 0 .35.05.55l.05.4q.05.25.05.6H6.9q0-.25.05-.45v-.35q.05-.5.1-.75l.05-.4q.1-.75.15-.75.05-.45.25-.65.15-.25.55-.4.35-.15.55-.25h.25q.1 0 .2.1.1.05.2.15.45.35.85.45.25.05.4.05l.3-.05q.35-.1.7-.3l.25-.2q.05 0 .15-.1l.2-.1m2.15-.45q.45.25.75.3.1.05.3.05.25.05.45-.05.5-.1.9-.4.05-.05.2-.15.1-.1.2-.1.05-.05.2 0 .15.05.55.2.4.2.5.4.2.25.3.8l.15.9q0 .15.05.4 0 .25.05.4.05.45.05.75h-4.3q-.1-.75-.15-1.1l-.1-.45q-.15-.75-.35-1-.3-.45-.85-.75-.15-.05-.25-.05-.1-.1-.2-.1.05-.05.2-.15l.5-.2q.25-.05.35-.05.1 0 .15.05l.35.3M15.4 270H2.8L0 272.1v1.4h18.15v-1.4L15.4 270z" fill="#ccc" id="b"/></defs><use xlink:href="#a" width="100%" height="100%" transform="translate(-.063 -378.483)"/><use xlink:href="#b" width="100%" height="100%" transform="translate(0 -191.848) scale(.71322)" fill="#ccc"/><path d="M4.614 13.385a1.107 1.107 0 0 1-.353-.313c-.153-.23-.15-.563.012-1.65.05-.33.09-.633.09-.671 0-.051-.539-.071-1.938-.071H.487V3.742h12v2.691l.215.312c.272.395.375.87.318 1.472l-.042.455.19.098c.304.157.684.595.786.906.245.749.39 2.468.233 2.763-.17.319-.247.333-1.863.354l-1.508.02-.055.193a.731.731 0 0 1-.232.324c-.171.128-.242.132-2.937.148-2.54.016-2.778.009-2.978-.093zm5.436-.742c0-.142-.206-1.672-.255-1.89-.086-.387-.274-.603-.683-.787-.432-.194-.499-.197-.705-.035-.612.481-1.217.488-1.832.02-.106-.08-.26-.145-.343-.144-.254.003-.828.325-.944.53-.126.22-.29 1.095-.344 1.827l-.038.516h2.572c1.415 0 2.572-.017 2.572-.037zm3.436-.854c-.001-.275-.169-1.439-.251-1.743-.09-.337-.344-.596-.722-.738l-.317-.12-.276.183c-.46.306-.829.4-1.218.313a1.893 1.893 0 0 1-.584-.258c-.299-.216-.439-.225-.816-.054l-.28.127.336.168c.185.093.418.27.518.395.2.247.389.88.458 1.533l.043.397h3.111l-.002-.203zM8 9.703c.504-.255.807-1.118.603-1.717-.215-.63-.856-1.119-1.346-1.027-.597.112-.966.483-1.08 1.086-.127.668.167 1.332.716 1.619.408.212.74.224 1.107.039zm3.459-.516c.702-.318.983-1.198.617-1.932-.089-.178-.246-.384-.35-.458-.372-.265-.976-.215-1.367.114-.518.436-.62 1.401-.205 1.945.338.442.801.56 1.305.331zm-4.411-2.94c.29-.066.405-.062.769.026.395.097.439.097.583.002.186-.122.275-.332.275-.652 0-.35-.118-.631-.293-.698-.084-.031-.897-.058-1.808-.058H4.92l-.153.154c-.134.134-.154.21-.154.596 0 .39.02.463.157.6.155.155.165.157 1.047.132.49-.014 1.044-.06 1.232-.102zM.05 2.688v-.493l.968-.726.968-.727h9.004l.964.735.965.734.003.485.003.484H.05v-.492z" fill="#b3b3b3"/></svg>