<svg xmlns="http://www.w3.org/2000/svg" xmlns:xlink="http://www.w3.org/1999/xlink" width="550" height="400" viewBox="0 0 550 400"><defs><filter color-interpolation-filters="sRGB" height="140%" width="140%" y="-20%" x="-20%" id="e"><feColorMatrix result="result1" values="0.96 0 0 0 0 0 0.96 0 0 0 0 0 0.96 0 0 0 0 0 1 0" in="SourceGraphic"/></filter><path d="M1.75 1.8Q0 3.55 0 6q0 2.55 1.75 4.25Q3.5 12 6 12q2.55 0 4.25-1.75Q12 8.55 12 6q0-2.45-1.75-4.2Q8.55 0 6 0 3.5 0 1.75 1.8z" fill="#09F" id="b"/><path d="M357.15 266.5l-3.65-3.1q-.95-.75-1.85-.1-.55.4-.65 1-.1.65.25 1.2l4.15 6.4q.25.4.6.6.75.6 1.7.45.95-.15 1.5-.95l10.55-15q.6-.9-.15-1.65-.35-.35-.85-.35t-.9.35l-10.7 11.15z" fill="#FFF" id="c"/><path d="M19.35.45Q18.99.18 18.6.2q-.454.004-.75.2-.065.035-.15.1-.395.228-.4 1v.95q-.91-.82-2.05-1.45-.06-.03-.15-.05Q12.812-.49 10-.5q-4.356.002-7.4 3.05Q-.499 5.697-.5 10q0 1.3 1.3 1.3T2.1 10q-.001-3.248 2.35-5.65Q6.708 2.049 10 2.05q2.266 0 4.25 1.2v.05q1.147.684 2 1.7H13.8q-1.301 0-1.3 1.2v.05q-.033.616.3.9.33.352 1 .35h4.8q.303-.004.5-.1.174-.012.3-.1h-.05q.553-.31.55-1.05V1.5q-.003-.762-.55-1.05M20.5 10q.004-.447-.2-.7-.34-.595-1.1-.6-.604-.016-.9.3-.301.346-.3 1 .001 3.343-2.35 5.65-2.26 2.304-5.65 2.3-2.2.012-4.05-1.1-.038-.063-.1-.1-1.205-.685-2.05-1.7h2.4q.702-.003 1.05-.35.353-.323.35-1 .044-.434-.5-.85l-.05-.05q-.232-.297-.85-.3H1.5q-.643.003-.95.3-.363.315-.3.9v4.85q.003.653.3.95.329.36.95.35.4.002.6-.2.155-.047.25-.15l.05-.05q.306-.373.3-.9v-1q.895.845 1.95 1.5.049.069.1.1Q7.112 20.507 10 20.5q4.355-.002 7.45-3.1 3.047-3.044 3.05-7.4z" fill="#FFF" id="d"/><path d="M225.95 19.9l4-4h-2.65v-5h-2.6v5h-2.75l4 4z" fill="#FFF" id="f"/><path d="M5.45 5.45l-2.7-2.7L0 5.45M0 0l2.75 2.75L5.45 0" fill="none" stroke-linecap="round" stroke-linejoin="round" stroke="#CCC" id="a"/></defs><path fill="#D9DADB" d="M3.9 190.35c.167.233.417.35.75.35h9.25c.3 0 .55-.117.75-.35.233-.2.35-.434.35-.7 0-.333-.117-.583-.35-.75a.948.948 0 0 0-.75-.35H4.65c-.333 0-.583.117-.75.35-.233.167-.35.417-.35.75 0 .267.117.5.35.7M.35 188.9c-.233.166-.35.416-.35.75 0 .267.117.5.35.7.167.233.417.35.75.35.267 0 .517-.117.75-.35.2-.2.3-.434.3-.7 0-.333-.1-.583-.3-.75-.233-.233-.483-.35-.75-.35-.333 0-.583.117-.75.35m.75-4.6c-.333 0-.583.117-.75.35a.812.812 0 0 0-.35.7c0 .3.117.55.35.75.167.233.417.35.75.35.267 0 .517-.117.75-.35.2-.2.3-.45.3-.75s-.1-.534-.3-.7c-.233-.233-.483-.35-.75-.35m0-4.3c-.333 0-.583.117-.75.35a.812.812 0 0 0-.35.7c0 .3.117.55.35.75.167.233.417.35.75.35.267 0 .517-.117.75-.35.2-.2.3-.45.3-.75s-.1-.533-.3-.7c-.233-.233-.483-.35-.75-.35m12.8 2.15c.3 0 .55-.117.75-.35.233-.2.35-.45.35-.75s-.117-.533-.35-.7a.948.948 0 0 0-.75-.35H4.65c-.333 0-.583.117-.75.35a.812.812 0 0 0-.35.7c0 .3.117.55.35.75.167.233.417.35.75.35h9.25m.75 2.5a.948.948 0 0 0-.75-.35H4.65c-.333 0-.583.117-.75.35a.812.812 0 0 0-.35.7c0 .3.117.55.35.75.167.233.417.35.75.35h9.25c.3 0 .55-.117.75-.35.233-.2.35-.45.35-.75s-.117-.534-.35-.7zm-9.5-62.15l-.45.45 4.55 5.85c.267.233.567.35.9.35s.617-.117.85-.35c.233-.233.35-.517.35-.85s-.117-.634-.35-.9l-5.85-4.55m8.15-.55c-1.466-1.267-3.183-1.917-5.15-1.95v1.85c1.467 0 2.767.5 3.9 1.5A5.88 5.88 0 0 1 13.8 126c.4 1.066.483 2.117.25 3.15-.2 1.1-.667 2.05-1.4 2.85a5.731 5.731 0 0 1-2.65 1.85 6.123 6.123 0 0 1-3.2.15 6.1 6.1 0 0 1-2.8-1.35A6.943 6.943 0 0 1 2.2 130a6.54 6.54 0 0 1-.2-3.2l-1.85-.3c-.267 1.367-.167 2.733.3 4.1a8.986 8.986 0 0 0 2.3 3.45c1.1.934 2.35 1.534 3.75 1.8s2.767.183 4.1-.25a8.29 8.29 0 0 0 3.45-2.35c.967-1.1 1.583-2.333 1.85-3.7.267-1.433.167-2.816-.3-4.15a8.286 8.286 0 0 0-2.3-3.45zM.65 63.65v8.65H15.4v-8.65H.65m9.2 3.7h-3.7c-.4 0-.6-.2-.6-.6v-.6c0-.433.2-.65.6-.65h3.7c.433 0 .65.217.65.65v.6c0 .167-.067.3-.2.4a.622.622 0 0 1-.45.2M16 61.8L13.55 60H2.5L0 61.8v1.25h16V61.8zm-3.55-50.95c.867-1.2 1.3-2.517 1.3-3.95 0-1.933-.667-3.566-2-4.9C10.383.667 8.767 0 6.9 0 4.967 0 3.333.667 2 2S0 4.967 0 6.9c0 1.867.667 3.483 2 4.85 1.333 1.333 2.967 2 4.9 2 1.434 0 2.75-.434 3.95-1.3l3.2 3.25c.233.2.517.3.85.3.3 0 .567-.1.8-.3.2-.233.3-.5.3-.8 0-.333-.1-.617-.3-.85l-3.25-3.2m.15-3.95c0 1.567-.567 2.9-1.7 4-1.1 1.133-2.433 1.7-4 1.7-1.6 0-2.967-.567-4.1-1.7-1.1-1.1-1.65-2.433-1.65-4 0-1.6.55-2.966 1.65-4.1 1.133-1.1 2.5-1.65 4.1-1.65 1.567 0 2.9.55 4 1.65 1.133 1.134 1.7 2.5 1.7 4.1zm2.15 26.55c-.733 0-1.55.1-2.45.3-.833-2.5-1.917-3.75-3.25-3.75-.667 0-1.3.333-1.9 1-.533.667-1 1.583-1.4 2.75-.9-.2-1.717-.3-2.45-.3-1.566 0-2.566.4-3 1.2-.367.6-.367 1.35 0 2.25.3.867.9 1.784 1.8 2.75-.9.967-1.5 1.883-1.8 2.75-.367.9-.367 1.65 0 2.25.467.833 1.467 1.25 3 1.25.633 0 1.45-.117 2.45-.35.4 1.167.867 2.083 1.4 2.75.6.7 1.233 1.05 1.9 1.05.633 0 1.233-.35 1.8-1.05.566-.667 1.05-1.583 1.45-2.75 1 .233 1.817.35 2.45.35 1.533 0 2.533-.417 3-1.25.367-.6.367-1.35 0-2.25-.333-.867-.933-1.783-1.8-2.75.867-.966 1.466-1.883 1.8-2.75.367-.9.367-1.65 0-2.25-.467-.8-1.467-1.2-3-1.2M13 37.1a14.194 14.194 0 0 0-.45-2.55c.833-.167 1.567-.25 2.2-.25 1.233 0 2 .267 2.3.8.167.3.184.683.05 1.15-.2.767-.7 2.184-1.5 4.25.8.934 1.3 1.783 1.5 2.55.133.467.117.85-.05 1.15-.3.566-1.066.85-2.3.85-.633 0-1.367-.1-2.2-.3A14.21 14.21 0 0 0 13 42.2c.7-.467 1.417-1.034 2.15-1.7-.133-.3-.25-.566-.35-.8-.6.533-1.167.983-1.7 1.35v-2.8c.566.4 1.117.85 1.65 1.35-.6-1.267-1.183-2.1-1.75-2.5m-1.25-2.35l.35 1.75-2.05-1.15a22.3 22.3 0 0 1 1.7-.6m-1.4-3.1c.433.567.816 1.333 1.15 2.3a24.85 24.85 0 0 0-2.45.9c-.933-.4-1.767-.7-2.5-.9.333-.967.717-1.733 1.15-2.3.466-.533.917-.8 1.35-.8.433 0 .867.267 1.3.8M1 35.1c.3-.534 1.067-.8 2.3-.8.6 0 1.333.083 2.2.25-.233.867-.4 1.717-.5 2.55a26.684 26.684 0 0 0-2.35 1.95c-.967-1.033-1.533-1.966-1.7-2.8-.133-.467-.117-.85.05-1.15m5.3-.35c.733.233 1.284.434 1.65.6L5.9 36.5l.4-1.75m.95 1.95c.2-.1.783-.4 1.75-.9.867.434 1.45.733 1.75.9l1.5.9v4.1l-1.5.9c-.167.133-.733.433-1.7.9-.8-.367-1.4-.667-1.8-.9l-1.45-.9v-4.1l1.45-.9m-6.3 6.35c.167-.833.733-1.767 1.7-2.8A26.684 26.684 0 0 0 5 42.2c.1.833.267 1.683.5 2.55-.867.2-1.6.3-2.2.3-1.233 0-2-.283-2.3-.85-.167-.3-.183-.683-.05-1.15m3.95-4.8v2.8a17.55 17.55 0 0 1-1.65-1.4c.533-.5 1.083-.966 1.65-1.4m2.8 9.4c-.434-.533-.817-1.3-1.15-2.3.733-.2 1.567-.5 2.5-.9.867.4 1.684.7 2.45.9-.333 1-.717 1.767-1.15 2.3-.434.567-.867.85-1.3.85-.433 0-.883-.283-1.35-.85m.25-3.7c-.367.167-.917.366-1.65.6l-.4-1.75 2.05 1.15m4.15-1.15l-.35 1.75c-.733-.233-1.3-.433-1.7-.6l2.05-1.15m-3.05-1.75c.367 0 .684-.133.95-.4s.4-.6.4-1c0-.367-.133-.7-.4-1a1.397 1.397 0 0 0-.95-.35c-.4 0-.733.117-1 .35-.267.3-.4.633-.4 1 0 .4.133.733.4 1s.6.4 1 .4zM2.45 213.9L0 222h16.65l2.45-8.1H2.45m2.8 1.8c.167 0 .333.065.5.2.1.133.15.3.15.5 0 .199-.05.365-.15.5-.167.133-.333.199-.5.199-.233 0-.417-.066-.55-.199a.684.684 0 0 1-.2-.5c0-.2.067-.367.2-.5.133-.132.317-.2.55-.2m1.6.7c0-.2.066-.367.2-.5.133-.135.317-.2.55-.2h7.3c.2 0 .35.065.45.2.167.133.25.3.25.5a.618.618 0 0 1-.25.5c-.1.133-.25.199-.45.199H7.6c-.233 0-.417-.066-.55-.199a.678.678 0 0 1-.2-.5m-2.65 2.15c.167 0 .333.083.5.25.1.101.15.25.15.45s-.05.367-.15.5c-.167.166-.333.25-.5.25a.668.668 0 0 1-.55-.25c-.133-.133-.2-.3-.2-.5s.066-.35.2-.45a.665.665 0 0 1 .55-.25M6.55 220a.668.668 0 0 1-.55-.25c-.133-.133-.2-.3-.2-.5s.067-.35.2-.45a.665.665 0 0 1 .55-.25h7.3c.2 0 .35.083.45.25.167.101.25.25.25.45s-.083.367-.25.5c-.1.166-.25.25-.45.25h-7.3m-1.5-10H.85L0 213.05v7l1.9-7h14.75v-1.6H6.15L5.05 210z"/><path fill="#6D6D6D" d="M61.3 6.65v-1.6h-4.85V0H54.8v5.05H50v1.6h4.8v5h1.65v-5h4.85z"/><path d="M58.077 30.377c-.036-.251-.215-.377-.539-.377h-1.184c-.251 0-.395.126-.43.377l-.27 1.023c-.071.215-.198.341-.377.377l-.862.323c-.107.108-.25.09-.43-.054l-.97-.484c-.25-.145-.43-.126-.538.053l-.862.862c-.107.108-.161.215-.161.323a.57.57 0 0 0 .108.323l.484.862c.143.18.162.358.054.538l-.323.754a.936.936 0 0 1-.377.377l-1.023.27c-.251.035-.377.197-.377.484v1.13c0 .324.126.503.377.539l1.023.27c.144.035.27.16.377.376.108.359.215.61.323.754.108.18.09.359-.054.538l-.484.862c-.145.25-.126.466.053.646l.862.862c.108.18.287.198.538.053l.97-.538c.18-.108.323-.125.43-.054l.862.377a.49.49 0 0 1 .377.323l.27 1.077c.035.251.179.377.43.377h1.184c.251 0 .431-.126.539-.377l.27-1.077c.035-.18.125-.287.268-.323l.862-.377a.47.47 0 0 1 .485.054l.915.538c.25.145.466.126.646-.053l.862-.862c.18-.18.198-.395.053-.646l-.538-.862a.582.582 0 0 1-.054-.538l.377-.754c.036-.215.143-.341.323-.377l1.077-.27c.251-.035.377-.214.377-.538v-1.13c0-.288-.126-.45-.377-.485l-1.077-.27a.49.49 0 0 1-.323-.376l-.377-.754a.582.582 0 0 1 .054-.538l.538-.862c.037-.108.073-.215.108-.323a1.333 1.333 0 0 0-.161-.323l-.862-.862c-.18-.18-.395-.198-.646-.053l-.915.484c-.144.143-.305.162-.485.054-.143-.108-.43-.215-.862-.323-.143-.036-.233-.162-.269-.377l-.27-1.023M54.524 37c0-.682.233-1.275.7-1.777a2.522 2.522 0 0 1 1.777-.7c.682 0 1.275.233 1.777.7.467.502.7 1.095.7 1.777 0 .682-.233 1.275-.7 1.777-.502.467-1.095.7-1.777.7a2.522 2.522 0 0 1-1.777-.7 2.526 2.526 0 0 1-.7-1.777z" fill="#6d6d6d"/><path fill="#6D6D6D" d="M62.55 72.55C63.517 71.583 64 69.733 64 67c0-2.767-.483-4.633-1.45-5.6-.967-.933-2.817-1.4-5.55-1.4-2.767 0-4.617.483-5.55 1.45-.967.933-1.45 2.783-1.45 5.55 0 2.733.467 4.583 1.4 5.55.967.967 2.833 1.45 5.6 1.45 2.733 0 4.583-.483 5.55-1.45M55.5 63.5l4 3.25-4 3.75v-7zm-3.3 32.45H50V103h2.2v-7.05m7.55-3.8c0-.533-.1-1-.3-1.4-.233-.5-.583-.75-1.05-.75-.5 0-.75.167-.75.5-.033 1.033-.233 1.883-.6 2.55-.167.367-.35.6-.55.7l-3.8 2.75v5.4l1.35.55c1.1.366 2.1.55 3 .55h.55c1.267 0 2.316-.184 3.15-.55.8-.267 1.2-.634 1.2-1.1a.448.448 0 0 0-.05-.2c-.1-.267-.05-.466.15-.6.267-.233.4-.5.4-.8 0-.233-.067-.45-.2-.65a.814.814 0 0 1-.1-.35c.034-.133.1-.267.2-.4.233-.2.35-.467.35-.8 0-.2-.05-.417-.15-.65-.1-.1-.15-.2-.15-.3a.643.643 0 0 1 .25-.4c.233-.2.35-.467.35-.8s-.1-.583-.3-.75c-.233-.233-.483-.35-.75-.35H59.2c.1-.2.183-.433.25-.7.2-.534.3-1.017.3-1.45zM57 120c-1.934 0-3.583.7-4.95 2.1-1.366 1.367-2.05 3-2.05 4.9 0 1.934.684 3.583 2.05 4.95 1.367 1.366 3.017 2.05 4.95 2.05s3.583-.684 4.95-2.05c1.366-1.367 2.05-3.017 2.05-4.95 0-1.9-.684-3.533-2.05-4.9-1.367-1.4-3.016-2.1-4.95-2.1m4.6 2.4c.4.4.733.817 1 1.25l-1.9 1.9c-.2-.5-.5-.95-.9-1.35-.4-.4-.85-.7-1.35-.9l1.9-1.9c.466.267.883.6 1.25 1m-7.95-1l1.9 1.9c-.5.2-.966.5-1.4.9-.367.4-.65.85-.85 1.35l-1.9-1.9c.267-.433.583-.85.95-1.25.433-.4.867-.733 1.3-1m6.15 8.4c.4-.4.7-.85.9-1.35l1.9 1.9c-.267.466-.6.9-1 1.3-.367.4-.784.717-1.25.95l-1.9-1.9c.5-.167.95-.467 1.35-.9m.7-2.8c0 .967-.333 1.8-1 2.5-.7.667-1.533 1-2.5 1s-1.8-.333-2.5-1c-.667-.7-1-1.533-1-2.5 0-.934.333-1.75 1-2.45.7-.7 1.533-1.05 2.5-1.05s1.8.35 2.5 1.05c.667.7 1 1.516 1 2.45m-7.2 1.45c.2.5.483.95.85 1.35.434.434.883.733 1.35.9l-1.85 1.9a6.421 6.421 0 0 1-1.3-.95 7.16 7.16 0 0 1-.95-1.3l1.9-1.9z"/><path fill="#D9DADB" d="M7.9 90.2a1.192 1.192 0 0 0-.9-.15 1.096 1.096 0 0 0-.75.5L1 98.3l-.25.1c-.3.133-.517.35-.65.65a1.946 1.946 0 0 0-.05.75c-.033.167-.033.35 0 .55.067.333.233.583.5.75l.05.05 1.9 4.3c.133.333.35.55.65.65.3.133.617.133.95 0l9.85-4.3c.3-.133.5-.35.6-.65.133-.3.133-.6 0-.9l-2.4-5.5a1.348 1.348 0 0 0-.25-.35l1.25-.55-.3-.3L7.9 90.2m.75 2.65c.167.133.184.283.05.45l-1.6 2.4-1.05.45 2.15-3.2c.1-.167.25-.2.45-.1m1.05 1.1l-.55.85-1.05.45 1.1-1.65c.1-.133.233-.15.4-.05.167.134.2.266.1.4m1.65 3.45c.1.2.05.333-.15.4l-7.8 3.4-.25-.55L11 97.2c.167-.067.283 0 .35.2m.1.9c.167-.033.3.017.4.15.066.2.017.333-.15.4l-3.85 1.7c-.167.1-.3.05-.4-.15-.067-.2-.017-.333.15-.4l3.85-1.7m-5.1 2.55c.066.2.017.333-.15.4l-2.35 1.05-.25-.55 2.35-1.05c.2-.067.333-.016.4.15zm4.7 58.45l4.95-3.45H9.85L8 150l-1.9 5.85H0l4.9 3.45-1.85 5.75 4.95-3.3 4.8 3.3-1.75-5.75z"/><path fill="#9198A5" d="M100.7 124.2v9.8h16.8v-9.8h-16.8m11.2 3.5a.68.68 0 0 1-.7.7H107c-.467 0-.7-.233-.7-.7v-.7c0-.467.233-.7.7-.7h4.2c.466 0 .7.233.7.7v.7m3.5-7.7h-12.6l-2.8 2.1v1.4h18.2v-1.4l-2.8-2.1z"/><g fill="#9198A5"><path fill-opacity=".369" d="M105.2 64.9H104v8.6c0 .167.066.3.2.4.133.133.267.2.4.2h5.55v-1.25h-4.95V64.9z"/><path d="M105.2 61.2h4.8v3.5c0 .1.033.2.1.3.066.1.167.15.3.15h3.4v7.7h-3.65v1.25h4.25a.622.622 0 0 0 .45-.2c.1-.1.15-.233.15-.4v-9.35a.48.48 0 0 0-.15-.35l-3.6-3.6c-.1-.134-.25-.2-.45-.2h-6.2c-.133 0-.267.066-.4.2-.134.1-.2.233-.2.4v4.3h1.2v-3.7z"/></g><path fill="#9198A5" d="M111 68.2a.663.663 0 0 0-.15-.4l-3.55-3.55c-.167-.167-.316-.25-.45-.25h-6.2c-.2 0-.333.083-.4.25-.167.1-.25.233-.25.4V77.5c0 .167.083.333.25.5.066.066.2.1.4.1h9.75c.2 0 .35-.034.45-.1.1-.167.15-.333.15-.5v-9.3m-5 .55c0 .1.033.2.1.3.1.067.183.1.25.1h3.45v7.75h-8.55V65.25H106v3.5zm-5.8-31.55l-.05.05c-.066.033-.1.066-.1.1-.033 0-.033.017 0 .05 0 .067.034.1.1.1l6 4.35-2.2 6.9v.15c0 .034.033.067.1.1h.25l5.9-4 5.95 4h.2c0-.033.017-.066.05-.1v-.15l-2.15-6.9 6-4.35.05-.1v-.05c-.033-.034-.05-.067-.05-.1-.033-.033-.066-.05-.1-.05h-7.5l-2.3-7.05c0-.033-.017-.066-.05-.1-.033-.033-.066-.05-.1-.05a.388.388 0 0 0-.15.05c-.033.034-.05.067-.05.1l-2.3 7.05h-7.5zm20.1-29.7l.05-.1v-.05c-.034-.034-.05-.067-.05-.1-.033-.033-.066-.05-.1-.05h-7.55l-2.3-7.05c0-.033-.017-.066-.05-.1-.033-.033-.067-.05-.1-.05a.388.388 0 0 0-.15.05c-.033.034-.05.067-.05.1l-2.25 7.05h-7.55l-.05.05c-.066.033-.1.066-.1.1-.033 0-.033.017 0 .05 0 .067.034.1.1.1l6.05 4.35-2.25 6.95v.15c0 .033.033.066.1.1h.25l5.9-4.05 6 4.05h.2c0-.033.017-.066.05-.1v-.15l-2.2-6.95 6.05-4.35m-7.3 4c-.033.033-.033.066 0 .1l1.55 5.15-4.25-2.95c-.033-.033-.066-.05-.1-.05s-.067.017-.1.05l-4.3 2.95 1.6-5.15c.034-.034.034-.067 0-.1 0-.066-.017-.1-.05-.1L103 8.3h5.4c.034 0 .067-.017.1-.05s.05-.066.05-.1L110.2 3l1.65 5.15c0 .034.017.067.05.1.034.033.083.05.15.05h5.35l-4.3 3.1c-.067 0-.1.034-.1.1z"/><path fill="none" d="M113 11.6c-.033-.034-.033-.067 0-.1 0-.066.033-.1.1-.1l4.3-3.1h-5.35c-.066 0-.116-.017-.15-.05-.033-.033-.05-.066-.05-.1L110.2 3l-1.65 5.15c0 .034-.017.067-.05.1s-.066.05-.1.05H103l4.35 3.1c.033 0 .05.034.05.1.034.033.034.066 0 .1l-1.6 5.15 4.3-2.95c.033-.033.066-.05.1-.05.033 0 .066.017.1.05l4.25 2.95L113 11.6z"/><path fill="#9198A5" d="M109 90c-2.533 0-4.65.883-6.35 2.65C100.883 94.383 100 96.5 100 99s.883 4.617 2.65 6.35c1.7 1.767 3.817 2.65 6.35 2.65 2.5 0 4.617-.883 6.35-2.65 1.767-1.733 2.65-3.85 2.65-6.35s-.883-4.617-2.65-6.35C113.617 90.883 111.5 90 109 90m-3.85 3.45c-.466-.233-.833-.367-1.1-.4 1.367-1.167 3.017-1.75 4.95-1.75.9 0 1.717.134 2.45.4-.267.566-.4.917-.4 1.05s.134.3.4.5c.133.1.283.217.45.35v.65c-.033.367.083.617.35.75.5.2 1-.066 1.5-.8a1.55 1.55 0 0 1 .25-.2c.2-.1.417-.15.65-.15.434.4.784.867 1.05 1.4-1.733.333-2.483 1.167-2.25 2.5.167.833.633 1.55 1.4 2.15.433.367.966.65 1.6.85-.367 1.633-1.184 3-2.45 4.1s-2.733 1.716-4.4 1.85c-.233-.233-.317-.45-.25-.65.033-.3.4-.866 1.1-1.7.4-.534.716-.983.95-1.35.434-.733.45-1.2.05-1.4 0-.034-.017-.05-.05-.05a3.984 3.984 0 0 1-.85-.6c-.466-.333-.767-.55-.9-.65-.466-.3-.9-.45-1.3-.45h-.95c-.4-.067-.633-.217-.7-.45-.1-.133-.1-.35 0-.65l-.65.2c-.267.066-.4.033-.4-.1-.033-.133.017-.3.15-.5.167-.467.5-.6 1-.4.4.2.7.316.9.35-.034-.1 0-.267.1-.5.134-.366.267-.616.4-.75.2-.233.466-.417.8-.55.566-.233.867-.35.9-.35l-.3-.45h.55l-.1.25c.467.033.65-.1.55-.4-.2-.366-.317-.667-.35-.9-.167.067-.283.05-.35-.05a.665.665 0 0 0-.4-.15c-.066 0-.2.15-.4.45-.233.367-.483.583-.75.65a.88.88 0 0 0-.25-.45 5.056 5.056 0 0 0-.5-.3c.1-.133.3-.283.6-.45l.75-.35c.1-.033.167-.133.2-.3 0-.167-.033-.267-.1-.3-.167-.1-.3-.117-.4-.05-.2.066-.25.167-.15.3h-.5c-.267-.133-.467-.2-.6-.2-.167 0-.367.083-.6.25l-.5.2c-.2.1-.417.083-.65-.05-.2-.2-.367-.333-.5-.4m-.6 5.15l-.1-.4.7 1.05c.133.066.35.15.65.25.3.1.517.184.65.25.333.233.566.417.7.55.067.034.1.1.1.2-.033.133-.133.316-.3.55 0 .134.05.384.15.75.1.333.333.75.7 1.25.267.4.434.85.5 1.35.034 1.133.284 1.9.75 2.3H109c-2.133 0-3.95-.75-5.45-2.25s-2.25-3.317-2.25-5.45c0-1.7.483-3.2 1.45-4.5.7.1 1.2.5 1.5 1.2.033.1-.05.65-.25 1.65-.133.9.05 1.317.55 1.25z"/><path fill="#FFF" d="M169.75 9.9c0-2.767-.95-5.1-2.85-7-2-1.933-4.333-2.9-7-2.9-2.767 0-5.1.967-7 2.9-1.933 1.9-2.9 4.233-2.9 7 0 2.667.967 5 2.9 7 1.9 1.9 4.233 2.85 7 2.85 2.067 0 3.967-.617 5.7-1.85l4.6 4.65c.333.3.733.45 1.2.45.434 0 .817-.15 1.15-.45.3-.333.45-.716.45-1.15 0-.466-.15-.867-.45-1.2l-4.65-4.6a9.478 9.478 0 0 0 1.85-5.7m-4.1-5.85c1.633 1.6 2.45 3.55 2.45 5.85 0 2.267-.817 4.184-2.45 5.75-1.566 1.633-3.483 2.45-5.75 2.45-2.3 0-4.25-.817-5.85-2.45-1.6-1.566-2.4-3.483-2.4-5.75 0-2.3.8-4.25 2.4-5.85 1.6-1.6 3.55-2.4 5.85-2.4 2.267 0 4.183.8 5.75 2.4m-4.2 6v-5.8h-3.05v5.8h-3.2l4.65 4.65 4.65-4.65h-3.05zM180 33.75c-.4-.633-1.017-1.267-1.85-1.9-1.667-1.233-3.55-1.85-5.65-1.85-2.066 0-3.934.417-5.6 1.25L165 32.5c-.4-.434-1.017-.85-1.85-1.25-1.667-.833-3.55-1.25-5.65-1.25-2.066 0-3.934.617-5.6 1.85-.833.633-1.466 1.267-1.9 1.9V50c.434-.633 1.066-1.267 1.9-1.9 1.667-1.233 3.534-1.85 5.6-1.85 2.1 0 3.983.617 5.65 1.85.833.633 1.45 1.267 1.85 1.9.434-.633 1.066-1.267 1.9-1.9 1.667-1.233 3.534-1.85 5.6-1.85 2.1 0 3.983.617 5.65 1.85.833.633 1.45 1.267 1.85 1.9V33.75m-7.5-1.25c1.934 0 3.6.7 5 2.1v10.2c-1.533-.7-3.2-1.05-5-1.05-2.3 0-4.383.583-6.25 1.75V34.75l.45-.5c.033 0 .533-.3 1.5-.9 1.3-.567 2.734-.85 4.3-.85m-9.3 1.75l.55.55v10.7c-1.967-1.167-4.05-1.75-6.25-1.75-1.833 0-3.5.35-5 1.05V34.6c1.3-1.4 2.967-2.1 5-2.1 2.5 0 4.4.583 5.7 1.75z"/><path fill="#B2B2B2" d="M220 10c0-2.767-.983-5.133-2.95-7.1C215.117.967 212.767 0 210 0s-5.133.967-7.1 2.9c-1.933 1.967-2.9 4.333-2.9 7.1s.967 5.117 2.9 7.05c1.967 1.967 4.333 2.95 7.1 2.95s5.117-.983 7.05-2.95c1.967-1.933 2.95-4.283 2.95-7.05m-7.75-5c-.267.267-.583.4-.95.4-.366 0-.683-.133-.95-.4s-.4-.583-.4-.95c0-.366.133-.683.4-.95.267-.233.583-.35.95-.35s.684.117.95.35c.267.267.4.583.4.95s-.133.683-.4.95M209 9.2v-.15l.05-.15c0-.267-.083-.433-.25-.5-.2-.066-.517-.117-.95-.15v-.5l4-.55-2 7.65c0 .133.033.216.1.25l.25.1c.2 0 .45-.184.75-.55l.75-1.05.45.25c-.633.966-1.133 1.617-1.5 1.95-.566.534-1.167.8-1.8.8-.367 0-.7-.1-1-.3-.267-.233-.4-.583-.4-1.05l.1-.75L209 9.2zm1 20.8c-2.767 0-5.133.967-7.1 2.9-1.933 1.967-2.9 4.333-2.9 7.1s.967 5.117 2.9 7.05c1.967 1.967 4.333 2.95 7.1 2.95s5.117-.983 7.05-2.95c1.967-1.933 2.95-4.283 2.95-7.05s-.983-5.133-2.95-7.1c-1.933-1.933-4.283-2.9-7.05-2.9m5.55 4.45c.233-.1.483-.167.75-.2.467.467.85.983 1.15 1.55-1.934.4-2.767 1.333-2.5 2.8.2.933.716 1.733 1.55 2.4.533.4 1.133.717 1.8.95-.433 1.8-1.35 3.316-2.75 4.55-1.433 1.2-3.066 1.883-4.9 2.05-.2-.267-.283-.517-.25-.75.034-.333.434-.966 1.2-1.9.466-.566.816-1.066 1.05-1.5.5-.8.55-1.3.15-1.5a.596.596 0 0 0-.15-.1 7.088 7.088 0 0 1-.9-.65 23.29 23.29 0 0 1-1.05-.75c-.534-.3-.983-.466-1.35-.5-.467.034-.817.034-1.05 0-.5-.033-.8-.183-.9-.45-.033-.167-.033-.417 0-.75l-.65.2c-.267.1-.417.067-.45-.1 0-.133.034-.3.1-.5.2-.533.583-.7 1.15-.5.5.233.833.367 1 .4-.033-.1 0-.284.1-.55.167-.4.317-.683.45-.85.233-.267.533-.466.9-.6.633-.233.967-.35 1-.35l-.35-.5c.3 0 .517-.017.65-.05l-.15.3c.534.033.75-.117.65-.45-.233-.4-.366-.733-.4-1-.2.1-.333.083-.4-.05a.622.622 0 0 0-.45-.2c-.1 0-.25.184-.45.55-.233.4-.483.633-.75.7-.034-.167-.15-.333-.35-.5a5.41 5.41 0 0 1-.55-.35c.1-.133.316-.283.65-.45l.85-.45c.1 0 .167-.1.2-.3 0-.167-.033-.284-.1-.35a.434.434 0 0 0-.45-.05c-.2.066-.267.183-.2.35h-.5c-.3-.167-.533-.25-.7-.25s-.384.1-.65.3l-.55.25a.75.75 0 0 1-.7-.05c-.267-.233-.466-.4-.6-.5-.534-.233-.934-.366-1.2-.4 1.566-1.333 3.4-2 5.5-2 1 0 1.917.167 2.75.5-.3.633-.45 1.017-.45 1.15 0 .167.134.35.4.55.133.133.316.267.55.4.033.033.017.267-.05.7-.034.4.1.683.4.85.533.233 1.1-.066 1.7-.9.067-.067.15-.133.25-.2m-12.5.55c.833.1 1.4.533 1.7 1.3.033.134-.066.75-.3 1.85-.134 1 .066 1.467.6 1.4l-.15-.45.85 1.15c.133.1.367.2.7.3.333.1.566.2.7.3.4.233.667.417.8.55.066.067.1.15.1.25-.033.167-.133.383-.3.65-.033.134.017.4.15.8.1.367.35.833.75 1.4.3.434.483.934.55 1.5.1 1.267.383 2.117.85 2.55H210c-2.4 0-4.434-.833-6.1-2.5-1.667-1.667-2.5-3.683-2.5-6.05 0-1.9.55-3.566 1.65-5zM200 71.3c0 1.067.367 2 1.1 2.8.8.733 1.716 1.1 2.75 1.1 1.066 0 1.966-.367 2.7-1.1l3.8 1.9c-.067.3-.1.617-.1.95 0 1.1.383 2.017 1.15 2.75.733.767 1.65 1.15 2.75 1.15 1.067 0 1.967-.383 2.7-1.15.767-.733 1.15-1.65 1.15-2.75 0-.8-.217-1.5-.65-2.1-.133-.2-.3-.417-.5-.65-.733-.733-1.633-1.1-2.7-1.1-1.1 0-2.017.367-2.75 1.1-.1.1-.183.2-.25.3l-3.6-1.85a3.72 3.72 0 0 0 .25-1.35c0-.533-.1-1.017-.3-1.45l4-3.05c.733.634 1.617.95 2.65.95 1.067 0 1.967-.367 2.7-1.1.767-.767 1.15-1.683 1.15-2.75 0-.8-.217-1.5-.65-2.1a1.984 1.984 0 0 0-.5-.65c-.733-.767-1.633-1.15-2.7-1.15-1.1 0-2.017.383-2.75 1.15-.767.767-1.15 1.684-1.15 2.75 0 .5.083.967.25 1.4l-4 3.1c-.733-.667-1.617-1-2.65-1-1.034 0-1.95.383-2.75 1.15-.733.766-1.1 1.683-1.1 2.75zm9 18.7c-2.5 0-4.633.717-6.4 2.15-1.733 1.434-2.6 3.217-2.6 5.35 0 2.1.867 3.867 2.6 5.3l.4.3v4.9l4.45-3.1c.5.067 1.017.1 1.55.1 2.5 0 4.617-.733 6.35-2.2 1.767-1.433 2.65-3.2 2.65-5.3 0-2.133-.883-3.917-2.65-5.35C213.617 90.717 211.5 90 209 90zm-5.35 48h8.7c.6 0 1.1-.217 1.5-.65.433-.4.65-.9.65-1.5V125h-13v10.85c0 .6.217 1.1.65 1.5.4.433.9.65 1.5.65m6.55-17.55c-.434-.3-.9-.45-1.4-.45h-1.6c-.534 0-1.017.15-1.45.45-.4.3-.684.683-.85 1.15h-2.5c-.667 0-1.233.233-1.7.7a2.315 2.315 0 0 0-.7 1.7h16c0-.667-.233-1.233-.7-1.7a2.315 2.315 0 0 0-1.7-.7h-2.55a2.432 2.432 0 0 0-.85-1.15zm8.65 32.8a2.856 2.856 0 0 1-.75-1.25l-8.25 8.4-.7 2.7 2.65-.75 8.25-8.45c-.5-.167-.9-.383-1.2-.65m2.05-3c-.2-.133-.333-.2-.4-.2-.167-.033-.283-.033-.35 0a.704.704 0 0 0-.3.05l-.95 1c0 .233.067.483.2.75.1.3.233.5.4.6.066.167.25.3.55.4l.75.15h.15l.95-.95c.067-.066.1-.15.1-.25l-.05-.35-.2-.4-.35-.45-.05-.05-.45-.3m-20.05.6A3.02 3.02 0 0 0 200 153v11.8c0 .833.283 1.534.85 2.1.6.6 1.3.9 2.1.9h11.9c.8 0 1.483-.3 2.05-.9.6-.566.9-1.267.9-2.1v-4.9l-2 1.95v2.95c0 .267-.1.5-.3.7s-.417.3-.65.3h-11.9c-.634 0-.95-.333-.95-1V153c0-.667.316-1 .95-1h11.9c.267 0 .5.133.7.4l1.45-1.45c-.566-.6-1.283-.9-2.15-.9h-11.9c-.8 0-1.5.266-2.1.8zm16.95 39.2l-1.6-1.6v11.5c0 .1-.05.2-.15.3a.34.34 0 0 1-.25.1h-11.75c.067.466.3.85.7 1.15.367.334.783.5 1.25.5h9.8c.534 0 1-.2 1.4-.6.4-.4.6-.885.6-1.45v-9.9m-16.7 1.85v5.25c0 .534.2 1 .6 1.4.4.4.883.6 1.45.6h9.75c.567 0 1.05-.2 1.45-.6.4-.4.6-.866.6-1.4v-9.8h-.05c0-.1-.05-.217-.15-.35l-5.45-5.4c-.1-.133-.2-.2-.3-.2h-2.55v1.65h2.3v3.75c0 .2.083.384.25.55.133.167.316.25.55.25h3.75v9.55c0 .1-.033.184-.1.25-.1.1-.2.15-.3.15h-9.75c-.1 0-.2-.05-.3-.15a.337.337 0 0 1-.1-.25v-4.95h-.15c-.534 0-1.034-.1-1.5-.3m8.45-8.85h.05l3.7 3.65v.1h-3.75v-3.75m-8.75-.85c0-.434.117-.784.35-1.05.233-.233.55-.35.95-.35.333 0 .6.134.8.4.233.267.35.6.35 1v4.35c0 .567-.15.85-.45.85-.133 0-.233-.033-.3-.1-.133-.133-.2-.383-.2-.75v-3.6c0-.134-.033-.233-.1-.3-.067-.066-.167-.1-.3-.1-.1 0-.2.034-.3.1-.067.067-.1.167-.1.3v3.6c0 .667.167 1.134.5 1.4.233.2.5.3.8.3.333 0 .617-.133.85-.4.267-.3.4-.733.4-1.3v-4.35c0-.634-.183-1.15-.55-1.55-.4-.433-.867-.65-1.4-.65-.633 0-1.15.2-1.55.6-.366.4-.55.933-.55 1.6v5.8c0 .8.2 1.467.6 2 .466.6 1.167.9 2.1.9.866 0 1.55-.316 2.05-.95.367-.534.55-1.184.55-1.95l.05-6.2c0-.1-.05-.183-.15-.25-.067-.1-.15-.15-.25-.15s-.2.034-.3.1c-.066.1-.1.2-.1.3l-.05 6.2c0 .833-.233 1.417-.7 1.75-.3.233-.667.35-1.1.35-.733 0-1.267-.267-1.6-.8-.2-.366-.3-.8-.3-1.3v-5.8zm4.65 39.05c-.4.166-.684.45-.85.85-.167.435-.167.852 0 1.25l3.2 7.301c.167.435.45.732.85.899.4.134.817.116 1.25-.05l13.15-5.7c.4-.2.684-.5.85-.899.167-.434.167-.851 0-1.25l-3.2-7.301a1.527 1.527 0 0 0-.85-.85 1.49 1.49 0 0 0-1.25.05l-13.15 5.7m14.3-.15c.233-.065.417 0 .55.2.1.267.034.45-.2.55l-5.15 2.2c-.233.134-.417.067-.55-.2-.1-.231-.033-.398.2-.5l5.15-2.25m-.65-1.45c.267-.102.45-.019.55.25.1.266.034.434-.2.5l-11 4.75c-.267.133-.45.065-.55-.2-.1-.233-.033-.4.2-.5l11-4.8m-6.15 4.85c.1.268.033.45-.2.55l-3.7 1.55c-.233.135-.4.066-.5-.199-.1-.233-.033-.399.2-.5l3.65-1.601c.267-.1.45-.032.55.2m-2.45-14.25c-.333-.232-.733-.3-1.2-.2-.433.101-.767.317-1 .65l-8.05 11.899c-.233.366-.316.782-.25 1.25.133.399.367.733.7 1l5.2 3.5-2-4.699c-.267-.566-.283-1.168-.05-1.801.267-.634.683-1.084 1.25-1.351l2-.8 3.85-5.75c.133-.233.316-.284.55-.15.233.2.267.4.1.602l-3.15 4.699 1.35-.601 2.45-3.7c.133-.167.316-.183.55-.05.233.166.284.334.15.5l-1.8 2.649 6.4-2.75-.4-.399-6.65-4.498zm1.05 30.3c-.066-.366-.3-.55-.7-.55h-1.8c-.333 0-.533.184-.6.55l-.4 1.45c-.066.3-.233.467-.5.5l-1.2.5c-.2.1-.434.084-.7-.05l-1.3-.8c-.333-.135-.6-.084-.8.148l-1.25 1.25c-.167.167-.25.317-.25.45 0 .101.034.25.1.45l.8 1.199c.133.267.15.533.05.801l-.5 1.1c-.1.268-.267.434-.5.5l-1.45.4c-.366.066-.55.283-.55.648v1.75c0 .4.184.635.55.7l1.45.4c.233.032.4.2.5.5.2.466.367.833.5 1.1.1.267.083.517-.05.75l-.8 1.25c-.133.333-.083.634.15.9l1.25 1.2c.2.266.467.315.8.148l1.3-.8c.267-.133.5-.149.7-.05l1.2.5a.638.638 0 0 1 .5.5l.4 1.5c.066.365.267.55.6.55h1.8c.333 0 .566-.185.7-.55l.4-1.5c.033-.268.167-.434.4-.5l1.2-.5c.267-.102.467-.083.6.05l1.4.8c.333.167.634.116.9-.148l1.2-1.2c.267-.267.317-.567.15-.9l-.8-1.25a.846.846 0 0 1-.05-.75l.5-1.1c.066-.3.233-.468.5-.5l1.5-.4c.366-.065.55-.3.55-.7v-1.75c0-.365-.184-.582-.55-.648l-1.5-.4a.638.638 0 0 1-.5-.5l-.5-1.1a.966.966 0 0 1 .05-.801l.8-1.199.15-.45c-.034-.133-.134-.283-.3-.45l-1.2-1.25a.814.814 0 0 0-.9-.148l-1.4.8c-.133.134-.333.149-.6.05a13.59 13.59 0 0 0-1.2-.5c-.233-.033-.367-.2-.4-.5l-.4-1.45m-1.55 5.9c.967 0 1.816.333 2.55 1 .667.7 1 1.55 1 2.55 0 .967-.333 1.816-1 2.55-.733.667-1.583 1-2.55 1-1 0-1.85-.333-2.55-1-.667-.733-1-1.583-1-2.55 0-1 .333-1.85 1-2.55.7-.667 1.55-1 2.55-1zM201.55 270c-.433 0-.8.15-1.1.45-.3.3-.45.667-.45 1.1v14.2c0 .434.15.8.45 1.1.3.301.667.45 1.1.45h18.9c.433 0 .8-.148 1.1-.45.3-.3.45-.666.45-1.1v-14.2c0-.399-.15-.767-.45-1.1-.3-.3-.667-.45-1.1-.45h-18.9m0 15.75v-14.2h18.9v14.2h-18.9m17.3-1.6l-3.9-5.5-2.4 3.148-3.9-4.699-5.5 7.051h15.7m-4.7-7.85c.434 0 .8-.149 1.1-.45.3-.3.45-.684.45-1.148 0-.4-.15-.768-.45-1.102-.3-.3-.667-.449-1.1-.449s-.816.149-1.15.449c-.3.301-.45.668-.45 1.102 0 .466.15.85.45 1.148.333.3.717.45 1.15.45zm3.55 42.2c.2 0 .35-.066.45-.2 0-.032.017-.05.05-.05.2-.133.3-.283.3-.45v-.25c0-.167-.1-.315-.3-.45-.034 0-.05-.016-.05-.05-.1-.134-.25-.2-.45-.2h-15.75c-.067 0-.117-.016-.15-.05-.066-.065-.1-.134-.1-.2v-15.8c0-.2-.083-.384-.25-.55h.05c-.167-.166-.35-.25-.55-.25h-.2c-.2 0-.367.066-.5.2v.05c-.167.166-.25.35-.25.55v16.95c0 .2.083.383.25.55.133.134.316.2.55.2h16.9m-11.15-7.65a.477.477 0 0 0-.35-.148h-2.7c-.133 0-.25.05-.35.148a.485.485 0 0 0-.15.352v3.898c0 .135.05.234.15.301.1.134.217.199.35.199h2.7c.133 0 .25-.065.35-.199.067-.065.1-.166.1-.301v-3.9a.612.612 0 0 0-.1-.35m4.6-2.5c-.1-.133-.216-.199-.35-.199h-2.65c-.133 0-.233.066-.3.199-.1.102-.15.2-.15.301v6.449c0 .135.05.234.15.301.066.134.167.199.3.199h2.65c.134 0 .25-.065.35-.199.133-.065.2-.166.2-.301v-6.449c0-.101-.067-.201-.2-.301m4.85-.9c0-.167-.05-.284-.15-.351-.1-.134-.217-.199-.35-.199h-2.6c-.167 0-.283.065-.35.199-.133.065-.2.184-.2.351v7.649c0 .133.066.233.2.301.067.133.184.199.35.199h2.6c.133 0 .25-.066.35-.199.1-.066.15-.168.15-.301v-7.649m-.05-6.6a.812.812 0 0 0 0-.398.478.478 0 0 0-.3-.2c-.1-.101-.2-.101-.3 0l-2.05.899h-.05l-2.45 1.101-.1.101-1.35 2-4.05 1.051-.05.05h-.05l-1.95 2c-.1.065-.15.167-.15.3s.05.232.15.3c.1.134.217.2.35.2.133 0 .233-.066.3-.2l1.8-1.75 4-1.05c.1 0 .183-.033.25-.1.1-.066.167-.15.2-.25l1.25-1.9 1.85-.8h.1l2.3-1.101a.467.467 0 0 0 .3-.253z"/><path fill="#09F" d="M253 311.2v3.899c0 .133.05.233.15.301.1.133.217.199.35.199h2.7c.133 0 .25-.066.35-.199.067-.066.1-.168.1-.301V311.2a.618.618 0 0 0-.1-.351.474.474 0 0 0-.35-.149h-2.7c-.133 0-.25.05-.35.149a.482.482 0 0 0-.15.351m5.15-3.05c-.133 0-.233.065-.3.199-.1.101-.15.199-.15.301v6.449c0 .133.05.233.15.301.066.133.167.199.3.199h2.65c.134 0 .25-.066.35-.199.133-.066.2-.168.2-.301v-6.449c0-.102-.067-.2-.2-.301-.1-.134-.216-.199-.35-.199h-2.65m10 8.9c-.1-.134-.25-.2-.45-.2h-15.75c-.067 0-.117-.016-.15-.05-.066-.065-.1-.134-.1-.2v-15.8c0-.2-.083-.384-.25-.55h.05c-.167-.166-.35-.25-.55-.25h-.2c-.2 0-.367.066-.5.2v.05c-.167.166-.25.35-.25.55v16.95c0 .2.083.383.25.55.133.134.316.2.55.2h16.9c.2 0 .35-.066.45-.2 0-.032.017-.05.05-.05.2-.133.3-.283.3-.45v-.25c0-.167-.1-.315-.3-.45-.033 0-.05-.016-.05-.05m-2.15-9.6c0-.167-.05-.284-.15-.351-.1-.134-.217-.199-.35-.199h-2.6c-.167 0-.283.065-.35.199-.133.065-.2.184-.2.351v7.649c0 .133.066.233.2.301.067.133.184.199.35.199h2.6c.133 0 .25-.066.35-.199.1-.066.15-.168.15-.301v-7.649m-.35-6.35a.444.444 0 0 0 .3-.25.812.812 0 0 0 0-.398.478.478 0 0 0-.3-.2c-.1-.101-.2-.101-.3 0l-2.05.899h-.05l-2.45 1.101-.1.101-1.35 2-4.05 1.051-.05.05h-.05l-1.95 2c-.1.065-.15.167-.15.3s.05.232.15.3c.1.134.217.2.35.2.133 0 .233-.066.3-.2l1.8-1.75 4-1.05c.1 0 .183-.033.25-.1.1-.066.167-.15.2-.25l1.25-1.9 1.85-.8h.1l2.3-1.104zm5.9-30.65c-.3-.3-.667-.45-1.1-.45h-18.9c-.433 0-.8.15-1.1.45-.3.3-.45.667-.45 1.1v14.2c0 .434.15.8.45 1.1.3.301.667.45 1.1.45h18.9c.433 0 .8-.148 1.1-.45.3-.3.45-.666.45-1.1v-14.2c0-.4-.15-.767-.45-1.1m-1.1 15.3h-18.9v-14.2h18.9v14.2m-11.8-8.65l-5.5 7.051h15.7l-3.9-5.5-2.4 3.149-3.9-4.7m3.9-2.4c0 .466.15.85.45 1.149.333.301.717.449 1.15.449.434 0 .8-.148 1.1-.449s.45-.685.45-1.149c0-.4-.15-.767-.45-1.101-.3-.301-.667-.449-1.1-.449s-.816.148-1.15.449c-.3.301-.45.669-.45 1.101zm-10.25-31.15c-.167.167-.25.317-.25.45 0 .1.034.25.1.45l.8 1.2c.133.266.15.533.05.8l-.5 1.1c-.1.267-.267.435-.5.5l-1.45.4c-.366.065-.55.282-.55.649v1.75c0 .399.184.633.55.699l1.45.4c.233.033.4.199.5.5.2.466.367.833.5 1.1.1.268.083.518-.05.75l-.8 1.25c-.133.333-.083.635.15.9l1.25 1.199c.2.267.467.316.8.149l1.3-.8c.267-.133.5-.15.7-.05l1.2.5a.638.638 0 0 1 .5.5l.4 1.5c.066.366.267.55.6.55h1.8c.333 0 .566-.184.7-.55l.4-1.5c.033-.267.167-.435.4-.5l1.2-.5c.267-.101.467-.083.6.05l1.4.8c.333.167.634.116.9-.149l1.2-1.199c.267-.268.317-.567.15-.9l-.8-1.25a.846.846 0 0 1-.05-.75l.5-1.1c.066-.301.233-.467.5-.5l1.5-.4c.366-.066.55-.3.55-.699v-1.75c0-.367-.184-.584-.55-.649l-1.5-.4a.638.638 0 0 1-.5-.5l-.5-1.1a.964.964 0 0 1 .05-.8l.8-1.2.15-.45c-.034-.133-.134-.283-.3-.45l-1.2-1.25c-.267-.233-.567-.282-.9-.149l-1.4.801c-.133.134-.333.148-.6.05a13.59 13.59 0 0 0-1.2-.5c-.233-.033-.367-.2-.4-.5l-.4-1.45c-.066-.365-.3-.55-.7-.55h-1.8c-.333 0-.533.185-.6.55l-.4 1.45c-.066.3-.233.467-.5.5l-1.2.5c-.2.101-.434.084-.7-.05l-1.3-.801c-.333-.133-.6-.084-.8.149l-1.25 1.25m7.7 2.9c.967 0 1.816.333 2.55 1 .667.7 1 1.55 1 2.55 0 .967-.333 1.816-1 2.55-.733.667-1.583 1-2.55 1-1 0-1.85-.333-2.55-1-.667-.733-1-1.583-1-2.55 0-1 .333-1.85 1-2.55.7-.667 1.55-1 2.55-1zm9.85-30.95a1.49 1.49 0 0 0-1.25.05l-13.15 5.7c-.4.166-.684.45-.85.85-.167.435-.167.852 0 1.25l3.2 7.301c.167.435.45.732.85.899.4.134.817.116 1.25-.05l13.15-5.7c.4-.2.684-.5.85-.899.167-.434.167-.851 0-1.25l-3.2-7.301a1.52 1.52 0 0 0-.85-.85m-.75 4.15c.267-.102.45-.019.55.25.1.266.034.434-.2.5l-11 4.75c-.267.133-.45.065-.55-.2-.1-.233-.033-.4.2-.5l11-4.8m.65 1.45c.233-.065.417 0 .55.2.1.267.034.45-.2.55l-5.15 2.2c-.233.134-.417.067-.55-.2-.1-.231-.033-.398.2-.5l5.15-2.25m-6.8 3.4c.1.268.033.45-.2.55l-3.7 1.55c-.233.135-.4.066-.5-.199-.1-.233-.033-.399.2-.5l3.65-1.601c.267-.1.45-.032.55.2m4.6-9.35l-.4-.4-6.65-4.5c-.333-.232-.733-.3-1.2-.2-.433.101-.767.317-1 .65l-8.05 11.899c-.233.366-.316.782-.25 1.25.133.399.367.733.7 1l5.2 3.5-2-4.699c-.267-.566-.283-1.168-.05-1.801.267-.634.683-1.084 1.25-1.351l2-.8 3.85-5.75c.133-.233.316-.284.55-.15.233.2.267.4.1.602l-3.15 4.699 1.35-.601 2.45-3.7c.133-.167.316-.183.55-.05.233.166.284.334.15.5l-1.8 2.649 6.4-2.747zm.25-25.1l-1.6-1.6v11.5c0 .1-.05.2-.15.3a.34.34 0 0 1-.25.1h-11.75c.067.466.3.85.7 1.15.367.334.783.5 1.25.5h9.8c.534 0 1-.2 1.4-.6.4-.4.6-.885.6-1.45v-9.9m-11.35-8.65v1.65h2.3v3.75c0 .2.083.384.25.55.133.167.316.25.55.25h3.75v9.55c0 .1-.033.184-.1.25-.1.1-.2.15-.3.15h-9.75c-.1 0-.2-.05-.3-.15a.337.337 0 0 1-.1-.25v-4.95h-.15c-.534 0-1.034-.1-1.5-.3v5.25c0 .534.2 1 .6 1.4.4.4.883.6 1.45.6h9.75c.567 0 1.05-.2 1.45-.6.4-.4.6-.866.6-1.4v-9.8h-.05c0-.1-.05-.217-.15-.35l-5.45-5.4c-.1-.133-.2-.2-.3-.2h-2.55m3.1 1.65h.05l3.7 3.65v.1h-3.75v-3.75m-4.35-1.5c-.067-.1-.15-.15-.25-.15s-.2.034-.3.1c-.066.1-.1.2-.1.3l-.05 6.2c0 .833-.233 1.417-.7 1.75-.3.233-.667.35-1.1.35-.733 0-1.267-.267-1.6-.8-.2-.366-.3-.8-.3-1.3v-5.8c0-.434.117-.784.35-1.05.233-.233.55-.35.95-.35.333 0 .6.134.8.4.233.267.35.6.35 1v4.35c0 .567-.15.85-.45.85-.133 0-.233-.033-.3-.1-.133-.133-.2-.383-.2-.75v-3.6c0-.134-.033-.233-.1-.3-.067-.066-.167-.1-.3-.1-.1 0-.2.034-.3.1-.067.067-.1.167-.1.3v3.6c0 .667.167 1.134.5 1.4.233.2.5.3.8.3.333 0 .617-.133.85-.4.267-.3.4-.733.4-1.3v-4.35c0-.634-.183-1.15-.55-1.55-.4-.433-.867-.65-1.4-.65-.633 0-1.15.2-1.55.6-.366.4-.55.933-.55 1.6v5.8c0 .8.2 1.467.6 2 .466.6 1.167.9 2.1.9.866 0 1.55-.316 2.05-.95.367-.534.55-1.184.55-1.95l.05-6.2c0-.1-.05-.183-.15-.25zm11.8-30.6c-.566-.6-1.283-.9-2.15-.9h-11.9c-.8 0-1.5.267-2.1.8A3.02 3.02 0 0 0 250 153v11.8c0 .833.283 1.534.85 2.1.6.6 1.3.9 2.1.9h11.9c.8 0 1.483-.3 2.05-.9.6-.566.9-1.267.9-2.1v-4.9l-2 1.95v2.95c0 .267-.1.5-.3.7s-.417.3-.65.3h-11.9c-.634 0-.95-.333-.95-1V153c0-.667.316-1 .95-1h11.9c.267 0 .5.133.7.4l1.45-1.45m3.05 2.95c-.5-.167-.9-.383-1.2-.65a2.856 2.856 0 0 1-.75-1.25l-8.25 8.4-.7 2.7 2.65-.75 8.25-8.45m1.3-3.35l-.45-.3c-.2-.133-.333-.2-.4-.2-.167-.033-.283-.033-.35 0a.704.704 0 0 0-.3.05l-.95 1c0 .233.067.483.2.75.1.3.233.5.4.6.066.167.25.3.55.4l.75.15h.15l.95-.95c.067-.066.1-.15.1-.25l-.05-.35-.2-.4-.35-.45-.05-.05zM253.65 138h8.7c.6 0 1.1-.217 1.5-.65.433-.4.65-.9.65-1.5V125h-13v10.85c0 .6.217 1.1.65 1.5.4.433.9.65 1.5.65m11.65-15.7a2.315 2.315 0 0 0-1.7-.7h-2.55a2.432 2.432 0 0 0-.85-1.15c-.434-.3-.9-.45-1.4-.45h-1.6c-.534 0-1.017.15-1.45.45-.4.3-.684.683-.85 1.15h-2.5c-.667 0-1.233.233-1.7.7a2.315 2.315 0 0 0-.7 1.7h16c0-.667-.233-1.233-.7-1.7zm-12.7-30.15c-1.733 1.434-2.6 3.217-2.6 5.35 0 2.1.867 3.867 2.6 5.3l.4.3v4.9l4.45-3.1c.5.067 1.017.1 1.55.1 2.5 0 4.617-.733 6.35-2.2 1.767-1.433 2.65-3.2 2.65-5.3 0-2.133-.883-3.917-2.65-5.35C263.617 90.717 261.5 90 259 90s-4.633.717-6.4 2.15zM268 63.9c0-.8-.217-1.5-.65-2.1a1.984 1.984 0 0 0-.5-.65c-.733-.767-1.633-1.15-2.7-1.15-1.1 0-2.017.383-2.75 1.15-.767.767-1.15 1.684-1.15 2.75 0 .5.083.967.25 1.4l-4 3.1c-.733-.667-1.617-1-2.65-1-1.034 0-1.95.383-2.75 1.15a3.842 3.842 0 0 0-1.1 2.75c0 1.067.367 2 1.1 2.8.8.733 1.716 1.1 2.75 1.1 1.066 0 1.966-.367 2.7-1.1l3.8 1.9c-.067.3-.1.617-.1.95 0 1.1.383 2.017 1.15 2.75.733.767 1.65 1.15 2.75 1.15 1.067 0 1.967-.383 2.7-1.15.767-.733 1.15-1.65 1.15-2.75 0-.8-.217-1.5-.65-2.1-.133-.2-.3-.417-.5-.65-.733-.733-1.633-1.1-2.7-1.1-1.1 0-2.017.367-2.75 1.1-.1.1-.183.2-.25.3l-3.6-1.85a3.72 3.72 0 0 0 .25-1.35c0-.533-.1-1.017-.3-1.45l4-3.05c.733.634 1.617.95 2.65.95 1.067 0 1.967-.367 2.7-1.1.767-.767 1.15-1.683 1.15-2.75zM250 40c0 2.767.967 5.117 2.9 7.05 1.967 1.967 4.333 2.95 7.1 2.95s5.117-.983 7.05-2.95c1.967-1.933 2.95-4.283 2.95-7.05s-.983-5.133-2.95-7.1c-1.933-1.933-4.283-2.9-7.05-2.9s-5.133.967-7.1 2.9c-1.933 1.967-2.9 4.333-2.9 7.1m5.7-6.2c-.534-.233-.934-.366-1.2-.4 1.566-1.333 3.4-2 5.5-2 1 0 1.917.167 2.75.5-.3.633-.45 1.017-.45 1.15 0 .167.134.35.4.55.133.133.316.267.55.4.033.033.017.267-.05.7-.034.4.1.683.4.85.533.233 1.1-.066 1.7-.9a1.72 1.72 0 0 1 .25-.2c.233-.1.483-.167.75-.2.467.467.85.983 1.15 1.55-1.934.4-2.767 1.333-2.5 2.8.2.933.716 1.733 1.55 2.4.533.4 1.133.717 1.8.95-.433 1.8-1.35 3.316-2.75 4.55-1.433 1.2-3.066 1.883-4.9 2.05-.2-.267-.283-.517-.25-.75.034-.333.434-.966 1.2-1.9.466-.566.816-1.066 1.05-1.5.5-.8.55-1.3.15-1.5a.596.596 0 0 0-.15-.1 7.088 7.088 0 0 1-.9-.65 23.29 23.29 0 0 1-1.05-.75c-.534-.3-.983-.466-1.35-.5-.467.034-.817.034-1.05 0-.5-.033-.8-.183-.9-.45-.033-.167-.033-.417 0-.75l-.65.2c-.267.1-.417.067-.45-.1 0-.133.034-.3.1-.5.2-.533.583-.7 1.15-.5.5.233.833.367 1 .4-.033-.1 0-.284.1-.55.167-.4.317-.683.45-.85.233-.267.533-.466.9-.6.633-.233.967-.35 1-.35l-.35-.5c.3 0 .517-.017.65-.05l-.15.3c.534.033.75-.117.65-.45-.233-.4-.366-.733-.4-1-.2.1-.333.083-.4-.05a.622.622 0 0 0-.45-.2c-.1 0-.25.184-.45.55-.233.4-.483.633-.75.7-.034-.167-.15-.333-.35-.5a5.41 5.41 0 0 1-.55-.35c.1-.133.316-.283.65-.45l.85-.45c.1 0 .167-.1.2-.3 0-.167-.033-.284-.1-.35a.434.434 0 0 0-.45-.05c-.2.066-.267.183-.2.35h-.5c-.3-.167-.533-.25-.7-.25s-.384.1-.65.3l-.55.25a.75.75 0 0 1-.7-.05c-.267-.234-.467-.4-.6-.5m-1.25 4.35c-.134 1 .066 1.467.6 1.4l-.15-.45.85 1.15c.133.1.367.2.7.3.333.1.566.2.7.3.4.233.667.417.8.55.066.067.1.15.1.25-.033.167-.133.383-.3.65-.033.134.017.4.15.8.1.367.35.833.75 1.4.3.434.483.934.55 1.5.1 1.267.383 2.117.85 2.55H260c-2.4 0-4.434-.833-6.1-2.5-1.667-1.667-2.5-3.683-2.5-6.05 0-1.9.55-3.566 1.65-5 .833.1 1.4.533 1.7 1.3.033.134-.066.75-.3 1.85zm12.6-21.1c1.967-1.933 2.95-4.283 2.95-7.05s-.983-5.133-2.95-7.1C265.117.967 262.767 0 260 0s-5.133.967-7.1 2.9c-1.933 1.967-2.9 4.333-2.9 7.1s.967 5.117 2.9 7.05c1.967 1.967 4.333 2.95 7.1 2.95s5.117-.983 7.05-2.95M261.3 5.4c-.366 0-.683-.133-.95-.4s-.4-.583-.4-.95c0-.366.133-.683.4-.95.267-.233.583-.35.95-.35s.684.117.95.35c.267.267.4.583.4.95s-.133.684-.4.95-.583.4-.95.4m-3.45 2.85v-.5l4-.55-2 7.65c0 .133.033.216.1.25l.25.1c.2 0 .45-.184.75-.55l.75-1.05.45.25c-.633.966-1.133 1.617-1.5 1.95-.566.534-1.167.8-1.8.8-.367 0-.7-.1-1-.3-.267-.233-.4-.583-.4-1.05l.1-.75L259 9.2v-.15l.05-.15c0-.267-.083-.433-.25-.5-.2-.067-.517-.117-.95-.15z"/><path fill="#FF9C16" d="M360.25 31.8c-1.167-1.2-2.583-1.8-4.25-1.8s-3.083.6-4.25 1.8c-1.167 1.167-1.75 2.567-1.75 4.2 0 1.667.583 3.083 1.75 4.25S354.333 42 356 42s3.083-.583 4.25-1.75S362 37.667 362 36c0-1.633-.583-3.033-1.75-4.2m-4.05.2l4 4-4 4v-2.7h-3.7v-2.65h3.7V32z"/><path fill="#FFF" d="M360.2 36l-4-4v2.65h-3.7v2.65h3.7V40l4-4z"/><path fill="#5C87EF" d="M362.8 2.25C361.367.75 359.6 0 357.5 0c-2.066 0-3.833.75-5.3 2.25-1.467 1.467-2.2 3.217-2.2 5.25 0 2.1.733 3.867 2.2 5.3 1.467 1.467 3.232 2.2 5.3 2.2 2.1 0 3.867-.733 5.3-2.2 1.467-1.433 2.2-3.2 2.2-5.3 0-2.033-.733-3.783-2.2-5.25m-6.4.35h2.3l-.352 6.45h-1.6L356.4 2.6m.3 9.55c-.2-.2-.3-.483-.3-.85 0-.366.083-.633.25-.8.198-.2.5-.3.898-.3.367 0 .65.1.852.3.198.167.3.434.3.8 0 .367-.102.65-.3.85-.2.2-.483.3-.852.3-.364 0-.648-.1-.848-.3z"/><path fill="#FFF" d="M356.4 11.3c0 .367.1.65.3.85.2.2.482.3.85.3s.65-.1.852-.3c.198-.2.3-.483.3-.85 0-.366-.102-.633-.3-.8-.2-.2-.483-.3-.852-.3-.398 0-.7.1-.898.3-.169.167-.252.434-.252.8m2.3-8.7h-2.3l.35 6.45h1.6l.35-6.45z"/><path d="M300.45 90.45c-.3.3-.45.683-.45 1.15v10.8c0 .467.15.833.45 1.1.3.333.683.5 1.149.5H318.4c.467 0 .833-.167 1.1-.5.333-.267.5-.633.5-1.1V91.6c0-.467-.167-.85-.5-1.15-.267-.3-.633-.45-1.1-.45h-16.8c-.467 0-.85.15-1.15.45m10.95 1.15h7v10.8h-16.8V91.6h9.8m6.25 9.4v-2h-5v2h5m-5-8v2h5v-2h-5m0 3v2h5v-2h-5z"/><path fill="#FFF" stroke="#000" stroke-linecap="round" stroke-linejoin="round" d="M311.4 91.6v10.8"/><path fill="#FFF" d="M320 61.6c0-.467-.167-.85-.5-1.15-.267-.3-.633-.45-1.1-.45h-16.8c-.467 0-.85.15-1.148.45-.301.3-.45.683-.45 1.15v10.8c0 .467.149.833.45 1.1.3.333.683.5 1.148.5h16.8c.467 0 .833-.167 1.1-.5.333-.267.5-.633.5-1.1V61.6m-1.6 0v10.8h-16.8V61.6h16.8m-5.75 1.4v2h5v-2h-5m0 3v2h5v-2h-5m0 3v2h5v-2h-5z"/><path fill="#FFF" stroke="#FFF" stroke-linecap="round" stroke-linejoin="round" d="M311.4 61.6v10.8"/><path fill="#FFF" d="M320 10c0-.2-.05-.35-.15-.45-.133-.233-.35-.35-.648-.35-.467 0-.7.267-.7.8 0 2.367-.833 4.367-2.5 6-1.6 1.633-3.6 2.45-6 2.45-1.6 0-3.066-.417-4.399-1.25-1.166-.667-2.084-1.55-2.75-2.65h3.351c.6 0 .898-.283.898-.85 0-.167-.115-.333-.35-.5-.1-.134-.283-.2-.55-.2h-4.7c-.565 0-.815.233-.75.7v4.85c0 .534.25.8.75.8.166 0 .283-.05.351-.15.065 0 .116-.017.149-.05a.934.934 0 0 0 .2-.6v-2.2c.8.9 1.732 1.683 2.8 2.35 1.5.866 3.167 1.3 5 1.3 2.767 0 5.133-.983 7.1-2.95C319.033 15.117 320 12.767 320 10m-.6-8.5c0-.3-.102-.5-.302-.6-.166-.133-.333-.2-.5-.2-.231 0-.398.066-.5.2H318c-.133.1-.2.3-.2.6v2.2c-.767-.9-1.7-1.65-2.8-2.25C313.5.483 311.833 0 310 0c-2.767 0-5.117.967-7.05 2.9-1.968 2-2.95 4.367-2.95 7.1 0 .533.268.8.8.8.534 0 .8-.267.8-.8 0-2.3.834-4.3 2.5-6 1.602-1.633 3.567-2.45 5.9-2.45 1.6 0 3.1.434 4.5 1.3 1.1.667 2 1.55 2.7 2.65h-3.4c-.533 0-.8.25-.8.75-.033.5.233.75.8.75h4.8a.703.703 0 0 0 .4-.1h.1c.2-.133.302-.35.302-.65L319.4 1.5zm-17.75 40.85h-1.4c.367 1.767 1.25 3.333 2.65 4.7 1.934 1.967 4.282 2.95 7.05 2.95 2.767 0 5.133-.983 7.1-2.95 1.367-1.366 2.268-2.933 2.7-4.7h-1.45c-.398 1.367-1.148 2.617-2.25 3.75-1.667 1.667-3.7 2.5-6.1 2.5-2.4 0-4.435-.833-6.101-2.5-1.099-1.133-1.831-2.383-2.199-3.75m-1.4-4.65h1.4c.365-1.4 1.1-2.65 2.199-3.75 1.666-1.7 3.699-2.55 6.101-2.55 2.398 0 4.433.85 6.1 2.55 1.102 1.1 1.852 2.35 2.25 3.75h1.45c-.434-1.767-1.333-3.333-2.7-4.7-1.967-2-4.333-3-7.1-3-2.768 0-5.116 1-7.05 3-1.367 1.367-2.25 2.934-2.65 4.7zm16.4 94.3l2.448-8.1H302.45L300 132h16.65m-1.3-6.1c.167.133.25.3.25.5s-.083.367-.25.5c-.1.133-.25.2-.448.2H307.6c-.231 0-.416-.067-.55-.2a.68.68 0 0 1-.2-.5c0-.2.067-.367.2-.5.134-.133.317-.2.55-.2h7.302c.198 0 .348.067.448.2m-1.5 2.65c.2 0 .352.083.45.25.167.1.25.25.25.45s-.083.367-.25.5a.49.49 0 0 1-.45.25h-7.3a.665.665 0 0 1-.55-.25c-.133-.133-.2-.3-.2-.5s.067-.35.2-.45a.664.664 0 0 1 .55-.25h7.3m-9.15-2.65c.134-.133.315-.2.55-.2.166 0 .334.066.5.2.1.133.15.3.15.5s-.051.367-.15.5c-.166.133-.334.2-.5.2-.232 0-.416-.067-.55-.2a.675.675 0 0 1-.2-.5c0-.2.066-.367.2-.5m0 2.9c.1.1.149.25.149.45s-.051.367-.149.5c-.167.167-.333.25-.5.25a.665.665 0 0 1-.55-.25c-.135-.133-.2-.3-.2-.5s.065-.35.2-.45a.662.662 0 0 1 .55-.25c.167 0 .333.083.5.25m11.95-5.75v-1.6h-10.5l-1.102-1.45h-4.198l-.85 3.05v7l1.9-7h14.75zm0 38.95v-8.1H300v8.1h16.65m-11.55-5.6c0-.2.066-.367.2-.5s.317-.2.55-.2h7.302c.198 0 .35.066.448.2.167.133.25.3.25.5s-.083.367-.25.5c-.1.133-.25.2-.448.2h-7.302c-.231 0-.416-.067-.55-.2a.675.675 0 0 1-.2-.5m-2.35 0c0-.2.066-.367.2-.5s.315-.2.55-.2c.166 0 .334.066.5.2.1.133.15.3.15.5s-.051.367-.15.5c-.166.133-.334.2-.5.2-.232 0-.416-.067-.55-.2a.675.675 0 0 1-.2-.5m0 2.85c0-.2.066-.35.2-.45a.664.664 0 0 1 .55-.25c.166 0 .334.083.5.25.1.1.15.25.15.45s-.051.367-.15.5c-.166.167-.334.25-.5.25a.668.668 0 0 1-.55-.25.675.675 0 0 1-.2-.5m8.4-.7h2c.198 0 .35.083.448.25.167.1.25.25.25.45s-.083.367-.25.5a.49.49 0 0 1-.448.25h-7.3a.669.669 0 0 1-.55-.25c-.134-.133-.2-.3-.2-.5s.066-.35.2-.45a.666.666 0 0 1 .55-.25h5.3m5.5-5.5v-1.6h-10.5l-1.102-1.45h-4.198l-.85 3.05h16.65z"/><path fill="#D9DADB" d="M16.35 250.448v-8.101H-.3v8.101h16.65m-11.551-5.6c0-.199.066-.366.2-.5.134-.133.317-.199.55-.199h7.302c.198 0 .35.066.448.199.167.134.25.301.25.5a.613.613 0 0 1-.25.5c-.1.134-.25.201-.448.201H5.549c-.231 0-.416-.067-.55-.201a.678.678 0 0 1-.2-.5m-2.349 0c0-.199.066-.366.2-.5.134-.133.315-.199.55-.199a.8.8 0 0 1 .5.199c.1.134.15.301.15.5a.814.814 0 0 1-.15.5c-.166.134-.334.201-.5.201-.232 0-.416-.067-.55-.201a.674.674 0 0 1-.2-.5m0 2.85c0-.2.066-.351.2-.45a.664.664 0 0 1 .55-.25c.166 0 .334.083.5.25.1.1.15.25.15.45s-.051.367-.15.5c-.166.167-.334.25-.5.25a.668.668 0 0 1-.55-.25.675.675 0 0 1-.2-.5m8.4-.7h2c.198 0 .35.083.448.25.167.1.25.25.25.45s-.083.367-.25.5a.49.49 0 0 1-.448.25H5.549a.669.669 0 0 1-.55-.25c-.134-.133-.2-.3-.2-.5s.066-.351.2-.45a.666.666 0 0 1 .55-.25h5.301m5.5-5.5v-1.6H5.85l-1.102-1.45H.549l-.85 3.05H16.35z"/><path fill="#FFF" d="M301.1 188.55c-.332 0-.582.117-.75.35-.231.167-.35.417-.35.75 0 .267.117.5.35.7.168.233.418.35.75.35.269 0 .519-.117.75-.35.2-.2.301-.434.301-.7 0-.333-.101-.583-.301-.75-.233-.233-.483-.35-.75-.35m0-4.25c-.332 0-.582.117-.75.35a.817.817 0 0 0-.35.7c0 .3.117.55.35.75.168.233.418.35.75.35.269 0 .519-.117.75-.35.2-.2.301-.45.301-.75s-.101-.534-.301-.7c-.233-.233-.483-.35-.75-.35m1.05-3.25c0-.3-.102-.533-.301-.7-.232-.233-.482-.35-.75-.35-.334 0-.584.117-.75.35a.815.815 0 0 0-.351.7c0 .3.117.55.351.75.166.233.416.35.75.35.268 0 .518-.117.75-.35.201-.2.301-.45.301-.75m12.5 7.85a.948.948 0 0 0-.75-.35h-9.25c-.334 0-.584.117-.75.35-.234.167-.352.417-.352.75 0 .267.116.5.352.7.166.233.416.35.75.35h9.25c.3 0 .55-.117.75-.35.231-.2.35-.434.35-.7 0-.334-.117-.584-.35-.75m0-4.25a.948.948 0 0 0-.75-.35h-9.25c-.334 0-.584.117-.75.35a.812.812 0 0 0-.352.7c0 .3.116.55.352.75.166.233.416.35.75.35h9.25c.3 0 .55-.117.75-.35.231-.2.35-.45.35-.75s-.117-.534-.35-.7m-.75-2.5c.3 0 .55-.117.75-.35.231-.2.35-.45.35-.75s-.117-.533-.35-.7a.948.948 0 0 0-.75-.35h-9.25c-.334 0-.584.117-.75.35a.812.812 0 0 0-.352.7c0 .3.116.55.352.75.166.233.416.35.75.35h9.25z"/><path d="M360.248 61.762c-1.167-1.2-2.583-1.8-4.25-1.8-1.667 0-3.083.6-4.25 1.8-1.167 1.167-1.75 2.567-1.75 4.2 0 1.667.583 3.083 1.75 4.25 1.167 1.167 2.583 1.75 4.25 1.75 1.667 0 3.083-.583 4.25-1.75 1.167-1.167 1.75-2.583 1.75-4.25 0-1.633-.583-3.033-1.75-4.2m-4.05.2l4 4-4 4v-2.7h-3.7v-2.65h3.7v-2.65z"/><path d="M360.198 65.962l-4-4v2.65h-3.7v2.65h3.7v2.7l4-4z" fill="#fff"/><use height="100%" width="100%" xlink:href="#a" transform="translate(350.574 150.607) scale(1.32144)"/><use height="100%" width="100%" xlink:href="#b" transform="translate(350 90.036) scale(.84616)"/><use height="100%" width="100%" xlink:href="#c" transform="matrix(.44348 0 0 .4462 195.745 -22.8)"/><use height="100%" width="100%" xlink:href="#d" filter="url(#e)" transform="translate(350.177 120.265) scale(.48322)"/><use height="100%" width="100%" xlink:href="#f" transform="translate(111.676 168.242) scale(1.07366)"/><g fill="#fff"><path d="M352.516 214.251h2.755a.693.693 0 0 0 0-1.388h-2.755a.694.694 0 0 0 0 1.388zm0 3.028h5.785a.693.693 0 0 0 0-1.388h-5.785a.694.694 0 0 0 0 1.388zm6.06 1.373h-6.06a.687.687 0 1 0 0 1.374h6.06a.687.687 0 1 0 0-1.374z"/><path d="M358.43 210.012h-6.986a1.54 1.54 0 0 0-1.54 1.543v9.582c0 .852.688 1.548 1.54 1.548h8.204c.852 0 1.54-.696 1.54-1.548v-8.298l-2.758-2.827zm1.218 11.565h-8.204a.444.444 0 0 1-.447-.44v-9.582c0-.244.203-.45.447-.45h6.45v1.24c0 .546.442.99.988.995l1.213.012v7.785c0 .244-.202.44-.447.44z"/></g><path d="M63 157.022c-.61 0-.898.429-1 .883-.365 1.632-1.917 4.117-5 4.117a5 5 0 0 1 0-10 4.95 4.95 0 0 1 2.98 1H59a1 1 0 0 0 0 2h3a1 1 0 0 0 1-1v-3a1 1 0 0 0-2 0v.259a6.952 6.952 0 0 0-4-1.26 7 7 0 1 0 0 14c4.99 0 7-4.75 7-5.937 0-.727-.531-1.063-1-1.063z" fill="#6d6d6d"/><g fill="#fff"><path d="M349.937 239.969h24v24h-24z" fill="none"/><path d="M369.287 250.009a7.49 7.49 0 0 0-7.35-6.04c-2.89 0-5.4 1.64-6.65 4.04a5.994 5.994 0 0 0-5.35 5.96c0 3.31 2.69 6 6 6h13c2.76 0 5-2.24 5-5 0-2.64-2.05-4.78-4.65-4.96zm-5.35 2.96v4h-4v-4h-3l5-5 5 5h-3z"/></g><path d="M360.121 274.316h-2.914v-4.37h-4.371v4.37h-2.914l5.1 5.1 5.1-5.1zm-10.2 6.557v1.457h10.2v-1.457h-10.2z" fill="#fff" fill-rule="evenodd"/><g fill="#fff"><path d="M359.741 305.792h-.875v-2.084c0-2.08-1.69-3.773-3.77-3.773a3.777 3.777 0 0 0-3.77 3.776v2.081h-.866c-.3 0-.548.238-.548.538v6.296c0 .748.614 1.356 1.362 1.356h7.653c.748 0 1.352-.608 1.352-1.356v-6.296c0-.3-.238-.538-.538-.538zm-7.331-2.081a2.691 2.691 0 0 1 2.686-2.69 2.69 2.69 0 0 1 2.686 2.687v2.084h-5.372v-2.081zm6.785 8.915a.27.27 0 0 1-.268.272h-7.653a.278.278 0 0 1-.277-.272v-5.75h8.198v5.75z"/><path d="M355.096 311.513c.3 0 .542-.243.542-.542v-1.954a.542.542 0 1 0-1.084 0v1.954c0 .3.242.542.542.542z"/></g><path d="M401.186 1.894a1.89 1.89 0 1 0 3.78.001 1.89 1.89 0 0 0-3.78 0zm0 4.017v4.252h-.59a.59.59 0 0 0 0 1.181h4.96a.59.59 0 0 0 0-1.181h-.59V5.249a.518.518 0 0 0-.52-.52h-3.85a.59.59 0 0 0 0 1.182h.59z" clip-rule="evenodd" fill="#fff" fill-rule="evenodd"/></svg>